# xmcd CD database file
#
# Track frame offsets:
#	150
#	23718
#	38112
#	62074
#	71221
#	83810
#	92620
#	110103
#	122475
#	142323
#	164214
#	179748
#	193660
#	205340
#	224242
#	239341
#
# Disc length: 3384 seconds
#
# Revision: 4
# Processed by: cddbd v1.5.2PL0 Copyright (c) Steve Scherf et al.
# Submitted via: CDex 1.51
#
DISCID=040d3610
DTITLE=ERIC CLAPTON, JEFF BECK, JIMMY PAGE - Blue Eyed Blues(Charly Blues Masterworks Vol.20)
DYEAR=1992
DGENRE=Blues
TTITLE0=23 Hours Too Long(Sonny Boy Williamson - The Yardbirds)
TTITLE1=Out On The Water Coast(Sonny Boy Williamson - The Yardbirds)
TTITLE2=Five Long Yeas(The Yardbirds)
TTITLE3=I Ain't Got You(The Yardbirds)
TTITLE4=Good Morning Little Schoolgirl(The Yardbirds)
TTITLE5=Little Red Rooster(Rehearsal)(Howlin' Wolf, Eric Clapton, Steve Winwood)
TTITLE6=Little Red Rooster(Howlin' Wolf, Eric Clapton, Steve Winwood)
TTITLE7=Highway 49(Eric Clapton, Steve Winwood, Bill Wyman)
TTITLE8=Wang-Dang-Doodle(Eric Clapton, Stewe Winwood, Bill Wyman)
TTITLE9=I'm A Man(The Yardbirds)
TTITLE10=The Train Kept A Rolling(The Yardbirds)
TTITLE11=Jeff's Blues(The Yardbirds)
TTITLE12=Steeled Blues(The Yardbirds)
TTITLE13=New York City Blues(The Yardbirds)
TTITLE14=It's A Bloody Life(Sonny boy Williamson - Jimmy Page)
TTITLE15=I See A Man Downstairs(Sonny Boy Williamson - Jimmy Page)
EXTD=YEAR: 1992
EXTT0=
EXTT1=
EXTT2=
EXTT3=
EXTT4=
EXTT5=
EXTT6=
EXTT7=
EXTT8=
EXTT9=
EXTT10=
EXTT11=
EXTT12=
EXTT13=
EXTT14=
EXTT15=
PLAYORDER=
